<?xml version="1.0" encoding="UTF-8" standalone="no"?>
<!-- Created with Inkscape (http://www.inkscape.org/) -->

<svg
   width="10000"
   height="10000"
   viewBox="0 0 2645.833 2645.833"
   version="1.1"
   id="svg5"
   inkscape:version="1.2.2 (732a01da63, 2022-12-09)"
   sodipodi:docname="map5.svg"
   inkscape:export-filename="..\..\..\Users\iwase\Pictures\map5.png"
   inkscape:export-xdpi="128"
   inkscape:export-ydpi="128"
   xmlns:inkscape="http://www.inkscape.org/namespaces/inkscape"
   xmlns:sodipodi="http://sodipodi.sourceforge.net/DTD/sodipodi-0.dtd"
   xmlns="http://www.w3.org/2000/svg"
   xmlns:svg="http://www.w3.org/2000/svg">
  <sodipodi:namedview
     id="namedview7"
     pagecolor="#ffffff"
     bordercolor="#000000"
     borderopacity="0.25"
     inkscape:showpageshadow="2"
     inkscape:pageopacity="0.0"
     inkscape:pagecheckerboard="0"
     inkscape:deskcolor="#d1d1d1"
     inkscape:document-units="mm"
     showgrid="true"
     inkscape:zoom="0.2287265"
     inkscape:cx="4678.0762"
     inkscape:cy="9257.7817"
     inkscape:window-width="3840"
     inkscape:window-height="2080"
     inkscape:window-x="-11"
     inkscape:window-y="1000"
     inkscape:window-maximized="1"
     inkscape:current-layer="layer1">
    <inkscape:grid
       type="xygrid"
       id="grid1626"
       originx="0"
       originy="0" />
  </sodipodi:namedview>
  <defs
     id="defs2">
    <rect
       x="10112"
       y="20544"
       width="32"
       height="32"
       id="rect522" />
    <inkscape:path-effect
       effect="bspline"
       id="path-effect2452"
       is_visible="true"
       lpeversion="1"
       weight="33.333333"
       steps="2"
       helper_size="0"
       apply_no_weight="true"
       apply_with_weight="true"
       only_selected="false" />
    <inkscape:path-effect
       effect="bspline"
       id="path-effect2448"
       is_visible="true"
       lpeversion="1"
       weight="33.333333"
       steps="2"
       helper_size="0"
       apply_no_weight="true"
       apply_with_weight="true"
       only_selected="false" />
    <inkscape:path-effect
       effect="bspline"
       id="path-effect2444"
       is_visible="true"
       lpeversion="1"
       weight="33.333333"
       steps="2"
       helper_size="0"
       apply_no_weight="true"
       apply_with_weight="true"
       only_selected="false" />
    <inkscape:path-effect
       effect="bspline"
       id="path-effect2440"
       is_visible="true"
       lpeversion="1"
       weight="33.333333"
       steps="2"
       helper_size="0"
       apply_no_weight="true"
       apply_with_weight="true"
       only_selected="false" />
    <inkscape:path-effect
       effect="bspline"
       id="path-effect2436"
       is_visible="true"
       lpeversion="1"
       weight="33.333333"
       steps="2"
       helper_size="0"
       apply_no_weight="true"
       apply_with_weight="true"
       only_selected="false" />
    <inkscape:path-effect
       effect="bspline"
       id="path-effect2432"
       is_visible="true"
       lpeversion="1"
       weight="33.333333"
       steps="2"
       helper_size="0"
       apply_no_weight="true"
       apply_with_weight="true"
       only_selected="false" />
    <inkscape:path-effect
       effect="bspline"
       id="path-effect2428"
       is_visible="true"
       lpeversion="1"
       weight="33.333333"
       steps="2"
       helper_size="0"
       apply_no_weight="true"
       apply_with_weight="true"
       only_selected="false" />
    <inkscape:path-effect
       effect="bspline"
       id="path-effect2424"
       is_visible="true"
       lpeversion="1"
       weight="33.333333"
       steps="2"
       helper_size="0"
       apply_no_weight="true"
       apply_with_weight="true"
       only_selected="false" />
  </defs>
  <g
     inkscape:label="Layer 1"
     inkscape:groupmode="layer"
     id="layer1">
    <path
       style="fill:#000000;stroke:#000000;stroke-width:0;stroke-dasharray:none"
       d="m 29.104166,62.177083 30.427083,15.874999 11.90625,11.90625 34.395831,15.874998 11.90625,18.52084 30.42708,18.52083 -1.32291,13.22916 -37.04167,14.55209 -54.239581,2.64583 L 29.104166,158.75 23.8125,121.70833 Z"
       id="path2410" />
    <path
       style="fill:#000000;stroke:#000000;stroke-width:0;stroke-dasharray:none"
       d="m 199.09896,117.87188 7.9375,34.39583 -10.58333,26.45833 -22.48959,25.13542 -27.78124,7.9375 -30.42709,6.61458 13.22917,22.48958 60.85416,-15.875 43.65625,-43.65625 3.96875,-47.62499 -1.32291,-33.07292 z"
       id="path2412" />
    <path
       style="fill:#000000;stroke:#000000;stroke-width:0;stroke-dasharray:none"
       d="m 55.562499,173.30208 6.614584,30.42708 5.291666,35.71875 6.614583,31.75 9.260417,15.875 26.458331,7.9375 19.84375,11.90625 13.22917,19.84375 18.52083,1.32292 21.16667,14.55208 7.9375,3.96875 9.26041,10.58334 h 5.29167 v 9.26041 l 21.16667,10.58334 5.29166,-1.32292 v 15.875 l 27.78125,15.875 6.61459,11.90625 L 141.55208,412.74999 93.927082,362.47916 60.854166,302.94791 35.71875,226.21875 V 177.27083 L 29.104166,158.75 Z"
       id="path2414" />
    <path
       style="fill:#000000;stroke:#000000;stroke-width:0;stroke-dasharray:none"
       d="m 321.73333,402.16667 -2.64584,26.45833 -23.8125,34.39583 -37.04166,26.45834 -37.04167,31.75 10.58333,26.45833 -29.10416,18.52083 -52.91667,21.16667 -7.9375,23.8125 10.58333,23.8125 68.79167,-26.45833 50.27083,-76.72917 58.20834,-82.02083 23.8125,-42.33334 L 345.54583,381 316.44166,394.22917 Z"
       id="path2416" />
    <path
       style="fill:#000000;stroke:#000000;stroke-width:0;stroke-dasharray:none"
       d="m 345.54583,381 v 0 l -29.10417,13.22917 -34.39583,-63.5 -5.29167,-42.33333 39.6875,-2.64584 26.45833,60.85417 2.64584,37.04167 z"
       id="path2420" />
    <path
       style="fill:#000000;stroke:#000000;stroke-width:0;stroke-dasharray:none"
       d="m -61.380366,628.95341 c 6.312015,3.53103 6.534083,29.34859 12.288515,50.34354 5.754432,20.99494 17.040576,37.16652 26.494365,46.92189 9.453789,9.75536 17.0745512,13.09418 25.5041532,15.86874 8.4296018,2.77455 17.6675328,4.98476 24.7998488,11.06968 7.132315,6.08493 12.158836,16.04392 20.908587,20.99984 8.74975,4.95592 21.22199,4.9089 29.407184,9.05662 8.185193,4.14772 12.083096,12.48955 20.76886,17.00918 8.685763,4.51963 22.158603,5.21718 30.908103,10.17349 8.7495,4.95632 12.77541,14.17072 22.57805,17.18936 9.80264,3.01865 25.38119,-0.15819 36.18425,3.60552 10.80307,3.76371 16.83019,14.46728 27.32516,19.16714 10.49496,4.69987 25.45694,3.39622 35.57939,8.59685 10.12245,5.20063 15.40499,16.90478 24.15473,21.86067 8.74974,4.9559 20.96595,3.1637 29.27917,8.18407 8.31321,5.02037 12.72317,16.85253 19.61147,24.31011 6.88829,7.45757 16.25423,10.54036 19.27938,19.01053 3.02515,8.47016 -0.29016,22.32704 7.16261,30.59324 7.45277,8.2662 25.67258,10.94144 38.29659,18.0035 12.62402,7.06207 19.65171,18.51018 27.66859,27.58502 8.01688,9.0749 17.02233,15.7761 23.79409,25.4794 6.77175,9.7033 11.30973,22.4081 21.06015,28.1086 9.75041,5.7004 24.71237,4.3968 32.70548,7.2356 7.99311,2.8388 9.01721,9.8194 19.02376,17.2653 10.00654,7.4459 28.9944,15.3567 38.19186,23.367 9.19745,8.0103 8.60441,16.1196 18.72724,21.3199 10.12283,5.2003 30.96042,7.4915 46.63861,14.1055 15.6782,6.614 26.19627,17.5501 39.6931,24.4838 13.49684,6.9338 29.97145,9.865 38.86065,18.812 8.88919,8.947 10.19285,23.909 20.00733,30.0458 9.81448,6.1368 28.1388,3.4485 38.19717,8.2128 10.05837,4.7644 11.85056,16.9806 22.85773,25.171 11.00716,8.1904 31.22823,12.3547 -53.58482,29.6999 -84.81306,17.3452 -274.65287,47.8701 -428.07433,-53.0811 C 141.4952,1127.7767 24.500704,895.35775 -27.79669,769.76776 -80.094083,644.17778 -67.69238,625.42239 -61.380366,628.95341 Z"
       id="path2422"
       inkscape:path-effect="#path-effect2424"
       inkscape:original-d="m -55.290421,606.66661 c 0.222372,25.81783 0.444434,51.63539 0.666204,77.45276 11.286898,16.17245 22.573046,32.34403 33.859117,48.51573 7.621368,3.33918 15.242134,6.67799 22.86275,10.01666 9.238584,2.21052 18.476514,4.42073 27.714314,6.63075 5.02702,9.9596 10.05354,19.91859 15.07985,29.87754 12.47304,-0.0468 24.94528,-0.0938 37.41747,-0.14107 3.89836,8.34238 7.79626,16.68421 11.69393,25.02596 13.473686,0.6978 26.946526,1.39535 40.419326,2.09269 4.02638,9.215 8.05229,18.42941 12.07799,27.64378 15.57947,-3.17674 31.15801,-6.35359 46.73657,-9.5307 6.02765,10.7042 12.05476,21.40777 18.08171,32.1113 14.96288,-1.30348 29.92486,-2.60713 44.88685,-3.91104 5.28305,11.70485 10.5656,23.40899 15.84795,35.11317 12.21696,-1.79231 24.43317,-3.58451 36.64936,-5.3767 4.41044,11.83286 8.82039,23.66502 13.23014,35.49722 9.36662,3.08313 18.73255,6.16592 28.09837,9.24855 -3.31514,13.85767 -6.63044,27.71455 -9.94613,41.57148 18.22085,2.67557 36.44066,5.35081 54.66055,8.02587 7.0283,11.44881 14.05601,22.89691 21.08357,34.34514 9.00606,6.7016 18.01148,13.4028 27.01676,20.1038 4.53845,12.7055 9.07642,25.4103 13.61419,38.1151 14.96288,-1.3036 29.92485,-2.6072 44.88685,-3.9111 1.0242,6.9813 2.04831,13.9619 3.0724,20.9425 18.98896,7.9113 37.97685,15.822 56.96484,23.7328 -0.59278,8.1098 -1.1858,16.2191 -1.77917,24.3284 20.8387,2.2914 41.67628,4.5827 62.51397,6.8737 10.51878,10.9367 21.03685,21.8728 31.55482,32.8089 16.47561,2.9316 32.95024,5.8628 49.42492,8.794 1.30401,14.9627 2.60764,29.9247 3.91103,44.8867 18.32531,-2.6884 36.64963,-5.3767 54.97405,-8.065 1.79232,12.217 3.58451,24.4332 5.37671,36.6494 20.22211,4.1647 40.44315,8.3292 60.66425,12.4933 -189.8471,30.5264 -379.68692,61.0512 -569.53086,91.5764 C 141.49535,1127.7766 24.500864,895.35767 -92.496273,662.9339 c 12.402499,-18.75592 24.8042,-37.51131 37.205852,-56.26729 z" />
    <path
       style="fill:#000000;stroke:#000000;stroke-width:0;stroke-dasharray:none"
       d="m 866.95156,1213.1147 c 2.6458,10.1426 12.3472,29.5454 16.75683,52.4761 4.40963,22.9308 3.52771,49.3886 -4.85093,70.5553 -8.37863,21.1667 -24.25327,37.0414 -49.38894,48.5067 -25.13567,11.4653 -59.53083,18.5207 -88.19423,22.9305 -28.6634,4.4097 -51.59349,6.1736 -66.58677,11.9064 -14.99328,5.7328 -22.04864,15.4339 -14.99273,21.1666 7.05591,5.7326 28.22215,7.4965 70.11509,-3e-4 41.89293,-7.4967 104.50973,-24.2533 140.22845,-46.7431 35.71873,-22.4897 44.53801,-50.7114 46.74287,-78.0518 2.20486,-27.3405 -2.20479,-53.7984 -10.58327,-72.7603 -8.37849,-18.9619 -20.72542,-30.4269 -29.10398,-35.7187 -8.37856,-5.2919 -12.78819,-4.4099 -10.14239,5.7326 z"
       id="path2426"
       inkscape:path-effect="#path-effect2428"
       inkscape:original-d="m 859.89582,1203.8542 c 9.70166,19.403 19.40304,38.8058 29.10417,58.2083 -0.8817,26.4591 -1.76363,52.9169 -2.64583,79.375 -15.87506,15.8756 -31.74974,31.7502 -47.625,47.625 -34.39626,7.0559 -68.79141,14.1113 -103.1875,21.1666 -22.93075,1.7642 -45.86084,3.5281 -68.79167,5.2917 -7.05543,9.7019 -14.11084,19.403 -21.16666,29.1042 21.16735,1.7642 42.33359,3.528 63.49999,5.2916 62.61958,-16.757 125.23637,-33.5136 187.85417,-50.2708 8.81988,-28.2225 17.63916,-56.4442 26.45833,-84.6666 -4.40954,-26.4586 -8.81917,-52.9165 -13.22916,-79.375 -12.34721,-11.4653 -24.69418,-22.9303 -37.04167,-34.3959 -4.40955,0.8822 -8.81917,1.7642 -13.22917,2.6459 z" />
    <path
       style="fill:#000000;stroke:#000000;stroke-width:0;stroke-dasharray:none"
       d="m 584.72887,1412.8748 c -1.3231,8.8195 -9.26058,25.5764 -10.58339,46.7434 -1.32281,21.167 3.96873,46.7428 18.52119,64.3818 14.55245,17.6389 38.36448,27.3401 62.17721,34.3956 23.81273,7.0556 47.62474,11.4652 52.03418,20.2848 4.40943,8.8195 -10.58332,22.0484 -39.68777,21.1664 -29.10446,-0.8821 -72.31885,-15.8748 -98.77738,-35.2777 -26.45853,-19.4029 -36.15972,-43.2149 -37.48266,-68.7917 -1.32295,-25.5767 5.73248,-52.9165 14.55211,-68.7916 8.81963,-15.8752 19.40277,-20.2848 27.34041,-22.0486 7.93764,-1.7639 13.2292,-0.8819 11.9061,7.9376 z"
       id="path2430"
       inkscape:path-effect="#path-effect2432"
       inkscape:original-d="m 591.34333,1404.9372 c -7.93724,16.7572 -15.87474,33.5141 -23.8125,50.2708 5.29204,25.5772 10.5836,51.153 15.875,76.7292 23.81324,9.7018 47.62526,19.403 71.4375,29.1041 23.81324,4.4101 47.62526,8.8197 71.4375,13.2292 -14.99309,13.2297 -29.98584,26.4586 -44.97917,39.6875 -43.21588,-14.9931 -86.4303,-29.9858 -129.64583,-44.9792 -9.70132,-23.8127 -19.4025,-47.6247 -29.10417,-71.4375 7.05596,-27.3405 14.11137,-54.6803 21.16667,-82.0208 10.58381,-4.4095 21.16693,-8.8192 31.75,-13.2292 5.29204,0.8823 10.5836,1.7642 15.875,2.6459 z" />
    <path
       style="fill:#000000;stroke:#000000;stroke-width:0;stroke-dasharray:none"
       d="m 790.22226,1573.6532 c -0.44094,1.7638 -0.44094,1.7638 -0.44094,1.7638 7.93778,19.4035 15.87513,38.8059 14.55202,58.6497 -1.32312,19.8438 -11.90623,40.1281 -32.19114,54.2393 -20.28491,14.1111 -50.27042,22.0485 -70.11424,26.4582 -19.84381,4.4097 -29.545,5.2916 -29.98587,10.1426 -0.44087,4.8509 8.37842,13.6702 29.54539,15.8748 21.16696,2.2047 54.68017,-2.2049 79.81565,-13.6704 25.13548,-11.4654 41.89207,-29.9859 52.91641,-50.7117 11.02435,-20.7259 16.31591,-43.656 14.11107,-61.7359 -2.20484,-18.08 -11.90603,-31.3089 -22.48943,-38.8055 -10.5834,-7.4967 -22.04845,-9.2606 -28.22225,-8.3785 -6.1738,0.8821 -7.05572,4.4098 -7.49667,6.1736 z"
       id="path2434"
       inkscape:path-effect="#path-effect2436"
       inkscape:original-d="m 789.78132,1575.417 c 0,0 0,0 0,0 7.93792,19.4034 15.87526,38.8058 23.8125,58.2083 -10.58328,20.2854 -21.1664,40.5697 -31.75,60.8542 -29.98645,7.9379 -59.97197,15.8752 -89.95833,23.8125 -9.70132,0.8822 -19.40251,1.7641 -29.10417,2.6458 8.81989,8.8199 17.63916,17.6392 26.45834,26.4583 33.51482,-4.4095 67.02803,-8.8191 100.54166,-13.2291 16.75754,-18.521 33.51416,-37.0414 50.27083,-55.5625 5.29204,-22.9308 10.5836,-45.8609 15.875,-68.7917 -9.70132,-13.2292 -19.4025,-26.4581 -29.10416,-39.6875 -11.46525,-1.7636 -22.9303,-3.5275 -34.39584,-5.2917 -0.88169,3.5282 -1.76363,7.0559 -2.64583,10.5834 z" />
    <path
       style="fill:#000000;stroke:#000000;stroke-width:0;stroke-dasharray:none"
       d="m 591.78428,1710.7956 c -7.93755,14.9931 -15.87504,29.9861 -17.19783,46.3024 -1.32278,16.3163 3.96877,33.9548 18.08021,46.302 14.11145,12.3472 37.04153,19.4026 58.64936,24.2533 21.60783,4.8507 41.89215,7.4965 55.12137,11.4654 13.22922,3.9689 19.40273,9.2605 16.75664,17.198 -2.64608,7.9374 -14.11112,18.5205 -33.95502,22.0483 -19.84389,3.5278 -48.06554,0 -72.76019,-10.5834 -24.69465,-10.5834 -45.86094,-28.2219 -58.64928,-47.6248 -12.78834,-19.403 -17.19798,-40.5693 -13.22916,-58.2084 3.96882,-17.6392 16.31582,-31.75 25.57639,-39.6876 9.26057,-7.9375 15.43409,-9.7014 21.60751,-11.4652 0,0 0,0 0,0"
       id="path2438"
       inkscape:path-effect="#path-effect2440"
       inkscape:original-d="m 591.78428,1710.7956 c -7.93724,14.9933 -15.87474,29.9863 -23.8125,44.9791 5.29203,17.6396 10.58359,35.2781 15.875,52.9167 22.93127,7.056 45.86136,14.1114 68.79166,21.1667 20.28539,2.6461 40.5697,5.2919 60.85417,7.9375 6.174,5.292 12.34749,10.5836 18.52083,15.875 -11.46524,10.5838 -22.9303,21.1669 -34.39583,31.75 -28.22252,-3.5276 -56.44417,-7.0553 -84.66667,-10.5834 -21.16682,-17.6389 -42.33307,-35.2775 -63.5,-52.9166 -4.40954,-21.1668 -8.81917,-42.3331 -13.22916,-63.5 12.34773,-14.1111 24.6947,-28.222 37.04166,-42.3334 6.174,-1.7636 12.3475,-3.5275 18.52084,-5.2916 0,0 0,0 0,0" />
    <rect
       style="fill:#000000;stroke:#000000;stroke-width:0;stroke-dasharray:none"
       id="rect2591"
       width="26.458332"
       height="190.5"
       x="681.56665"
       y="1869.0167" />
    <rect
       style="fill:#000000;stroke:#000000;stroke-width:0;stroke-dasharray:none"
       id="rect2591-8"
       width="26.458332"
       height="269.87512"
       x="796.39581"
       y="1793.8749" />
    <path
       style="fill:#000000;stroke:#000000;stroke-width:0;stroke-dasharray:none"
       id="path2617-8-5-3-6"
       sodipodi:type="arc"
       sodipodi:cx="774.03851"
       sodipodi:cy="1874.8375"
       sodipodi:rx="3.3072915"
       sodipodi:ry="3.3072915"
       sodipodi:start="0"
       sodipodi:end="6.2796598"
       sodipodi:open="true"
       sodipodi:arc-type="arc"
       d="m 777.3458,1874.8375 a 3.3072915,3.3072915 0 0 1 -3.30437,3.3073 3.3072915,3.3072915 0 0 1 -3.3102,-3.3014 3.3072915,3.3072915 0 0 1 3.29854,-3.3132 3.3072915,3.3072915 0 0 1 3.31601,3.2957" />
    <path
       style="fill:#000000;stroke:#000000;stroke-width:0;stroke-dasharray:none"
       id="path2617-0-3"
       sodipodi:type="arc"
       sodipodi:cx="750.22601"
       sodipodi:cy="1888.0667"
       sodipodi:rx="3.3072915"
       sodipodi:ry="3.3072915"
       sodipodi:start="0"
       sodipodi:end="6.2796598"
       sodipodi:open="true"
       sodipodi:arc-type="arc"
       d="m 753.5333,1888.0667 a 3.3072915,3.3072915 0 0 1 -3.30437,3.3072 3.3072915,3.3072915 0 0 1 -3.3102,-3.3014 3.3072915,3.3072915 0 0 1 3.29854,-3.3131 3.3072915,3.3072915 0 0 1 3.31601,3.2956" />
    <path
       style="fill:#000000;stroke:#000000;stroke-width:0;stroke-dasharray:none"
       id="path2617-8-5-6-5-1"
       sodipodi:type="arc"
       sodipodi:cx="796.26355"
       sodipodi:cy="1888.5958"
       sodipodi:rx="3.3072915"
       sodipodi:ry="3.3072915"
       sodipodi:start="0"
       sodipodi:end="6.2796598"
       sodipodi:open="true"
       sodipodi:arc-type="arc"
       d="m 799.57084,1888.5958 a 3.3072915,3.3072915 0 0 1 -3.30438,3.3073 3.3072915,3.3072915 0 0 1 -3.3102,-3.3014 3.3072915,3.3072915 0 0 1 3.29854,-3.3132 3.3072915,3.3072915 0 0 1 3.31602,3.2957" />
    <path
       style="fill:#000000;stroke:#000000;stroke-width:0;stroke-dasharray:none"
       id="path2617-8-5-3-6-0"
       sodipodi:type="arc"
       sodipodi:cx="774.03851"
       sodipodi:cy="1927.7542"
       sodipodi:rx="3.3072915"
       sodipodi:ry="3.3072915"
       sodipodi:start="0"
       sodipodi:end="6.2796598"
       sodipodi:open="true"
       sodipodi:arc-type="arc"
       d="m 777.3458,1927.7542 a 3.3072915,3.3072915 0 0 1 -3.30437,3.3072 3.3072915,3.3072915 0 0 1 -3.3102,-3.3014 3.3072915,3.3072915 0 0 1 3.29854,-3.3131 3.3072915,3.3072915 0 0 1 3.31601,3.2956" />
    <path
       style="fill:#000000;stroke:#000000;stroke-width:0;stroke-dasharray:none"
       id="path2617-0-3-4"
       sodipodi:type="arc"
       sodipodi:cx="750.22601"
       sodipodi:cy="1940.9833"
       sodipodi:rx="3.3072915"
       sodipodi:ry="3.3072915"
       sodipodi:start="0"
       sodipodi:end="6.2796598"
       sodipodi:open="true"
       sodipodi:arc-type="arc"
       d="m 753.5333,1940.9833 a 3.3072915,3.3072915 0 0 1 -3.30437,3.3073 3.3072915,3.3072915 0 0 1 -3.3102,-3.3015 3.3072915,3.3072915 0 0 1 3.29854,-3.3131 3.3072915,3.3072915 0 0 1 3.31601,3.2956" />
    <path
       style="fill:#000000;stroke:#000000;stroke-width:0;stroke-dasharray:none"
       id="path2617-8-5-6-5-1-7"
       sodipodi:type="arc"
       sodipodi:cx="796.26355"
       sodipodi:cy="1941.5125"
       sodipodi:rx="3.3072915"
       sodipodi:ry="3.3072915"
       sodipodi:start="0"
       sodipodi:end="6.2796598"
       sodipodi:open="true"
       sodipodi:arc-type="arc"
       d="m 799.57084,1941.5125 a 3.3072915,3.3072915 0 0 1 -3.30438,3.3072 3.3072915,3.3072915 0 0 1 -3.3102,-3.3014 3.3072915,3.3072915 0 0 1 3.29854,-3.3131 3.3072915,3.3072915 0 0 1 3.31602,3.2956" />
    <path
       style="fill:#000000;stroke:#000000;stroke-width:0;stroke-dasharray:none"
       id="path2617-8-5-3-6-0-8"
       sodipodi:type="arc"
       sodipodi:cx="774.03851"
       sodipodi:cy="1980.6708"
       sodipodi:rx="3.3072915"
       sodipodi:ry="3.3072915"
       sodipodi:start="0"
       sodipodi:end="6.2796598"
       sodipodi:open="true"
       sodipodi:arc-type="arc"
       d="m 777.3458,1980.6708 a 3.3072915,3.3072915 0 0 1 -3.30437,3.3073 3.3072915,3.3072915 0 0 1 -3.3102,-3.3015 3.3072915,3.3072915 0 0 1 3.29854,-3.3131 3.3072915,3.3072915 0 0 1 3.31601,3.2956" />
    <path
       style="fill:#000000;stroke:#000000;stroke-width:0;stroke-dasharray:none"
       id="path2617-0-3-4-0"
       sodipodi:type="arc"
       sodipodi:cx="750.22601"
       sodipodi:cy="1993.8999"
       sodipodi:rx="3.3072915"
       sodipodi:ry="3.3072915"
       sodipodi:start="0"
       sodipodi:end="6.2796598"
       sodipodi:open="true"
       sodipodi:arc-type="arc"
       d="m 753.5333,1993.8999 a 3.3072915,3.3072915 0 0 1 -3.30437,3.3073 3.3072915,3.3072915 0 0 1 -3.3102,-3.3015 3.3072915,3.3072915 0 0 1 3.29854,-3.3131 3.3072915,3.3072915 0 0 1 3.31601,3.2956" />
    <path
       style="fill:#000000;stroke:#000000;stroke-width:0;stroke-dasharray:none"
       id="path2617-8-5-6-5-1-7-1"
       sodipodi:type="arc"
       sodipodi:cx="796.26355"
       sodipodi:cy="1994.4291"
       sodipodi:rx="3.3072915"
       sodipodi:ry="3.3072915"
       sodipodi:start="0"
       sodipodi:end="6.2796598"
       sodipodi:open="true"
       sodipodi:arc-type="arc"
       d="m 799.57084,1994.4291 a 3.3072915,3.3072915 0 0 1 -3.30438,3.3073 3.3072915,3.3072915 0 0 1 -3.3102,-3.3015 3.3072915,3.3072915 0 0 1 3.29854,-3.3131 3.3072915,3.3072915 0 0 1 3.31602,3.2956" />
    <path
       style="fill:#000000;stroke:#000000;stroke-width:0;stroke-dasharray:none"
       id="path2617-8-5-3-6-3"
       sodipodi:type="arc"
       sodipodi:cx="727.47186"
       sodipodi:cy="1874.8375"
       sodipodi:rx="3.3072915"
       sodipodi:ry="3.3072915"
       sodipodi:start="0"
       sodipodi:end="6.2796598"
       sodipodi:open="true"
       sodipodi:arc-type="arc"
       d="m 730.77915,1874.8375 a 3.3072915,3.3072915 0 0 1 -3.30437,3.3073 3.3072915,3.3072915 0 0 1 -3.3102,-3.3014 3.3072915,3.3072915 0 0 1 3.29854,-3.3132 3.3072915,3.3072915 0 0 1 3.31601,3.2957" />
    <path
       style="fill:#000000;stroke:#000000;stroke-width:0;stroke-dasharray:none"
       id="path2617-8-5-3-6-0-9"
       sodipodi:type="arc"
       sodipodi:cx="727.47186"
       sodipodi:cy="1927.7542"
       sodipodi:rx="3.3072915"
       sodipodi:ry="3.3072915"
       sodipodi:start="0"
       sodipodi:end="6.2796598"
       sodipodi:open="true"
       sodipodi:arc-type="arc"
       d="m 730.77915,1927.7542 a 3.3072915,3.3072915 0 0 1 -3.30437,3.3072 3.3072915,3.3072915 0 0 1 -3.3102,-3.3014 3.3072915,3.3072915 0 0 1 3.29854,-3.3131 3.3072915,3.3072915 0 0 1 3.31601,3.2956" />
    <path
       style="fill:#000000;stroke:#000000;stroke-width:0;stroke-dasharray:none"
       id="path2617-8-5-3-6-0-8-5"
       sodipodi:type="arc"
       sodipodi:cx="727.47186"
       sodipodi:cy="1980.6708"
       sodipodi:rx="3.3072915"
       sodipodi:ry="3.3072915"
       sodipodi:start="0"
       sodipodi:end="6.2796598"
       sodipodi:open="true"
       sodipodi:arc-type="arc"
       d="m 730.77915,1980.6708 a 3.3072915,3.3072915 0 0 1 -3.30437,3.3073 3.3072915,3.3072915 0 0 1 -3.3102,-3.3015 3.3072915,3.3072915 0 0 1 3.29854,-3.3131 3.3072915,3.3072915 0 0 1 3.31601,3.2956" />
    <path
       style="fill:#000000;stroke:#000000;stroke-width:0;stroke-dasharray:none"
       id="path2617-8-5-6-5-1-76"
       sodipodi:type="arc"
       sodipodi:cx="709.21564"
       sodipodi:cy="1888.5958"
       sodipodi:rx="3.3072915"
       sodipodi:ry="3.3072915"
       sodipodi:start="0"
       sodipodi:end="6.2796598"
       sodipodi:open="true"
       sodipodi:arc-type="arc"
       d="m 712.52293,1888.5958 a 3.3072915,3.3072915 0 0 1 -3.30438,3.3073 3.3072915,3.3072915 0 0 1 -3.3102,-3.3014 3.3072915,3.3072915 0 0 1 3.29854,-3.3132 3.3072915,3.3072915 0 0 1 3.31602,3.2957" />
    <path
       style="fill:#000000;stroke:#000000;stroke-width:0;stroke-dasharray:none"
       id="path2617-8-5-6-5-1-7-6"
       sodipodi:type="arc"
       sodipodi:cx="709.21564"
       sodipodi:cy="1941.5125"
       sodipodi:rx="3.3072915"
       sodipodi:ry="3.3072915"
       sodipodi:start="0"
       sodipodi:end="6.2796598"
       sodipodi:open="true"
       sodipodi:arc-type="arc"
       d="m 712.52293,1941.5125 a 3.3072915,3.3072915 0 0 1 -3.30438,3.3072 3.3072915,3.3072915 0 0 1 -3.3102,-3.3014 3.3072915,3.3072915 0 0 1 3.29854,-3.3131 3.3072915,3.3072915 0 0 1 3.31602,3.2956" />
    <path
       style="fill:#000000;stroke:#000000;stroke-width:0;stroke-dasharray:none"
       id="path2617-8-5-6-5-1-7-1-7"
       sodipodi:type="arc"
       sodipodi:cx="709.21564"
       sodipodi:cy="1994.4291"
       sodipodi:rx="3.3072915"
       sodipodi:ry="3.3072915"
       sodipodi:start="0"
       sodipodi:end="6.2796598"
       sodipodi:open="true"
       sodipodi:arc-type="arc"
       d="m 712.52293,1994.4291 a 3.3072915,3.3072915 0 0 1 -3.30438,3.3073 3.3072915,3.3072915 0 0 1 -3.3102,-3.3015 3.3072915,3.3072915 0 0 1 3.29854,-3.3131 3.3072915,3.3072915 0 0 1 3.31602,3.2956" />
    <path
       style="fill:#000000;stroke:#000000;stroke-width:0"
       d="m 888.99999,2383.3666 4.23333,12.7 25.4,29.6334 59.26667,8.4666 50.80001,25.4 33.8667,8.4667 33.8666,16.9333 4.2334,-4.2333 4.2333,8.4667 97.3667,38.1 25.4,16.9333 -12.7,12.7 -287.86671,4.2333 -76.2,-8.4666 16.93333,-160.8667"
       id="path565" />
    <path
       style="fill:#000000;stroke:#000000;stroke-width:0"
       d="m 2506.1333,2895.6 h 16.9333 118.5334 v 965.2 h -389.4667 z"
       id="path573" />
    <path
       style="fill:#000000;stroke:#000000;stroke-width:0"
       d="m 1930.4,3200.4 h 67.7333 101.6 l 84.6667,660.4 h -254 z"
       id="path577" />
    <path
       style="fill:#000000;stroke:#000000;stroke-width:0"
       d="m 1938.8666,3945.4666 h 73.7905 l 502.4783,294.9691 h -576.2688 z"
       id="path579" />
    <path
       style="fill:#000000;stroke:#000000;stroke-width:0"
       d="m 2624.0642,4204.3171 -147.581,114.3758 h 154.6087 z"
       id="path581" />
    <path
       style="fill:#000000;stroke:#000000;stroke-width:0"
       d="m 2378.0959,4300.6335 147.581,114.3758 -161.6364,-6.0197 z"
       id="path583" />
    <path
       style="fill:#000000;stroke:#000000;stroke-width:0"
       d="m 2610.0089,4384.9104 v 6.0198 l -154.6087,132.4351 175.6917,6.0198 z"
       id="path585" />
    <path
       style="fill:#000000;stroke:#000000;stroke-width:0"
       d="m 2364.0405,4523.3653 112.4427,108.356 h -182.7193 l 49.1936,-144.4746 z"
       id="path587" />
    <path
       style="fill:#000000;stroke:#000000;stroke-width:0"
       d="m 2539.7322,4607.6422 -77.3043,156.5143 h 147.581 l -49.1937,-174.5736 z"
       id="path589" />
    <path
       style="fill:#000000;stroke:#000000;stroke-width:0"
       d="m 2321.8745,4776.196 126.4981,72.2374 35.1383,42.1384 h 35.1383 v 78.2571 l -217.8577,-6.0198 7.0277,-222.7317 h 14.0553 z"
       id="path591" />
    <path
       style="fill:#000000;stroke:#000000;stroke-width:0"
       d="m 2631.0919,4848.4334 v 6.0197 l -7.0277,114.3758 -35.1383,96.3165 -119.4703,48.1582 196.7747,12.0396 28.1107,-222.7318 -21.083,-78.2571 -42.1661,18.0593 z"
       id="path593" />
    <path
       style="fill:#000000;stroke:#000000;stroke-width:0"
       d="m 2332.416,5041.0663 17.5692,108.356 49.1937,75.2472 66.7628,12.0396 91.3597,24.0791 -7.0277,39.1286 -147.581,3.0098 -84.332,-45.1483 -31.6245,-135.445 24.5968,-78.2571 z"
       id="path595" />
    <path
       style="fill:#000000;stroke:#000000;stroke-width:0"
       d="m 2366.605,5432.8331 v 2.0274 l 51.2513,50.6852 157.4147,111.5076 h 58.5729 l 51.2513,64.8771 73.2161,32.4385 139.1107,24.3289 29.2864,40.5482 73.2161,72.9867 102.5026,89.2059 117.1458,40.5484 73.2162,8.1095 h 43.9296 l 14.6432,-8.1095 v 64.877 l -1068.9554,-8.1097 14.6432,-583.8938 z"
       id="path599" />
    <path
       style="fill:#000000;stroke:#000000;stroke-width:0"
       d="m 3395.2916,5970.0965 h 113.485 V 5848.452 h 29.2865 l -3.6608,178.412 -43.9297,8.1098 -106.1634,-12.1645 3.6608,-36.4934 v -24.3289 h 7.3216 z"
       id="path601" />
    <path
       style="fill:#000000;stroke:#000000;stroke-width:0"
       d="m 3351.3619,5961.987 h 36.6081 v 4.0547 h -36.6081 z"
       id="path614" />
    <rect
       style="fill:#000000;stroke:#000000;stroke-width:0"
       id="rect527"
       width="42.333332"
       height="177.8"
       x="2624.6667"
       y="4051.3" />
    <rect
       style="fill:#000000;stroke:#000000;stroke-width:0"
       id="rect529"
       width="8.4666662"
       height="8.4666662"
       x="2650.0667"
       y="4165.6001" />
    <path
       style="fill:#000000;stroke:#000000;stroke-width:0;stroke-dasharray:none"
       id="path2354"
       sodipodi:type="arc"
       sodipodi:cx="-351.36667"
       sodipodi:cy="-61.383331"
       sodipodi:rx="2.1166661"
       sodipodi:ry="2.1166661"
       sodipodi:start="0"
       sodipodi:end="6.2796598"
       sodipodi:open="true"
       sodipodi:arc-type="arc"
       d="m -349.25,-61.383331 a 2.1166661,2.1166661 0 0 1 -2.1148,2.116665 2.1166661,2.1166661 0 0 1 -2.11853,-2.112934 2.1166661,2.1166661 0 0 1 2.11106,-2.12039 2.1166661,2.1166661 0 0 1 2.12225,2.109196" />
    <path
       style="fill:#000000;stroke:#000000;stroke-width:0"
       d="M -292.09999,-42.333332 -42.333333,42.333333 -38.1,143.93333 -364.06666,97.366666 l 12.7,-160.866665 z"
       id="path503" />
    <path
       style="fill:#000000;stroke:#000000;stroke-width:0"
       d="M -42.333333,42.333333 29.633333,59.266666 29.104166,62.177083 23.8125,121.70833 -38.1,143.93333 Z"
       id="path430" />
    <path
       style="fill:#000000;stroke:#000000;stroke-width:0"
       d="M 215.9,97.366666 237.06667,101.6 V 16.933334 H 215.9 Z"
       id="path432" />
    <path
       style="fill:#000000;stroke:#000000;stroke-width:0"
       d="m 863.6,1202.2666 h 16.93333 V 1083.7333 H 863.6 Z"
       id="path529" />
    <path
       style="fill:#000000;stroke:#000000;stroke-width:0"
       id="path592-1-4"
       sodipodi:type="arc"
       sodipodi:cx="668.86664"
       sodipodi:cy="2192.8667"
       sodipodi:rx="8.4666662"
       sodipodi:ry="8.4666662"
       sodipodi:start="0"
       sodipodi:end="6.2796598"
       sodipodi:open="true"
       sodipodi:arc-type="arc"
       d="m 677.3333,2192.8667 a 8.4666662,8.4666662 0 0 1 -8.4592,8.4667 8.4666662,8.4666662 0 0 1 -8.47411,-8.4518 8.4666662,8.4666662 0 0 1 8.44426,-8.4815 8.4666662,8.4666662 0 0 1 8.489,8.4367" />
    <path
       style="fill:#000000;stroke:#000000;stroke-width:0"
       id="path592-0-0"
       sodipodi:type="arc"
       sodipodi:cx="600.25098"
       sodipodi:cy="1701.7998"
       sodipodi:rx="8.4666662"
       sodipodi:ry="8.4666662"
       sodipodi:start="0"
       sodipodi:end="6.2796598"
       sodipodi:open="true"
       sodipodi:arc-type="arc"
       d="m 608.71764,1701.7998 a 8.4666662,8.4666662 0 0 1 -8.4592,8.4667 8.4666662,8.4666662 0 0 1 -8.47412,-8.4518 8.4666662,8.4666662 0 0 1 8.44427,-8.4815 8.4666662,8.4666662 0 0 1 8.489,8.4368" />
    <path
       style="fill:#000000;stroke:#000000;stroke-width:0"
       id="path592-0-0-7"
       sodipodi:type="arc"
       sodipodi:cx="780.78546"
       sodipodi:cy="1564.3046"
       sodipodi:rx="8.4666662"
       sodipodi:ry="8.4666662"
       sodipodi:start="0"
       sodipodi:end="6.2796598"
       sodipodi:open="true"
       sodipodi:arc-type="arc"
       d="m 789.25213,1564.3046 a 8.4666662,8.4666662 0 0 1 -8.45921,8.4666 8.4666662,8.4666662 0 0 1 -8.47411,-8.4517 8.4666662,8.4666662 0 0 1 8.44426,-8.4816 8.4666662,8.4666662 0 0 1 8.48901,8.4368" />
    <path
       style="fill:#000000;stroke:#000000;stroke-width:0"
       id="path592-0-0-7-3"
       sodipodi:type="arc"
       sodipodi:cx="595.57672"
       sodipodi:cy="1402.8206"
       sodipodi:rx="8.4666662"
       sodipodi:ry="8.4666662"
       sodipodi:start="0"
       sodipodi:end="6.2796598"
       sodipodi:open="true"
       sodipodi:arc-type="arc"
       d="m 604.04339,1402.8206 a 8.4666662,8.4666662 0 0 1 -8.45921,8.4666 8.4666662,8.4666662 0 0 1 -8.47411,-8.4517 8.4666662,8.4666662 0 0 1 8.44426,-8.4816 8.4666662,8.4666662 0 0 1 8.489,8.4368" />
    <path
       style="fill:#000000;stroke:#000000;stroke-width:0"
       d="m 678.7196,2098.7545 -2.77253,86.6244 -47.81958,-31.4962 20.64579,-51.1893 z"
       id="path362" />
    <text
       xml:space="preserve"
       transform="scale(0.26458333)"
       id="text520"
       style="white-space:pre;shape-inside:url(#rect522);display:inline;fill:#000000;stroke:#000000;stroke-width:0" />
    <path
       id="path466"
       style="fill:#000000;stroke:#000000;stroke-width:0"
       d="m 2536.1019,5411.5549 a 118.95254,118.95254 0 0 0 0.4201,4.0043 118.95254,118.95254 0 0 0 134.2639,101.2307 118.95254,118.95254 0 0 0 101.3491,-134.1745 l -0.058,-0.415 a 118.95254,118.95254 0 0 0 -0.5972,-3.3447 l -32.4947,4.5142 a 103.71667,103.71667 0 0 1 -80.4518,60.6968 103.71667,103.71667 0 0 1 -93.9877,-36.4632 z" />
    <path
       style="fill:#000000;stroke:#000000;stroke-width:0"
       id="path528"
       sodipodi:type="arc"
       sodipodi:cx="2719.9167"
       sodipodi:cy="5431.3667"
       sodipodi:rx="6.3499999"
       sodipodi:ry="4.2333331"
       sodipodi:start="0"
       sodipodi:end="6.2796598"
       sodipodi:open="true"
       sodipodi:arc-type="arc"
       d="m 2726.2667,5431.3667 a 6.3499999,4.2333331 0 0 1 -6.3444,4.2333 6.3499999,4.2333331 0 0 1 -6.3555,-4.2258 6.3499999,4.2333331 0 0 1 6.3332,-4.2408 6.3499999,4.2333331 0 0 1 6.3667,4.2184" />
    <path
       style="fill:#000000;stroke:#000000;stroke-width:0"
       id="path592-0-0-6"
       sodipodi:type="arc"
       sodipodi:cx="2383.3667"
       sodipodi:cy="4288.3667"
       sodipodi:rx="8.4666662"
       sodipodi:ry="8.4666662"
       sodipodi:start="0"
       sodipodi:end="6.2796598"
       sodipodi:open="true"
       sodipodi:arc-type="arc"
       d="m 2391.8334,4288.3667 a 8.4666662,8.4666662 0 0 1 -8.4592,8.4667 8.4666662,8.4666662 0 0 1 -8.4742,-8.4518 8.4666662,8.4666662 0 0 1 8.4443,-8.4815 8.4666662,8.4666662 0 0 1 8.489,8.4367" />
    <path
       style="fill:#000000;stroke:#000000;stroke-width:0"
       id="path592-0-0-6-0"
       sodipodi:type="arc"
       sodipodi:cx="2603.5"
       sodipodi:cy="4381.5"
       sodipodi:rx="8.4666662"
       sodipodi:ry="8.4666662"
       sodipodi:start="0"
       sodipodi:end="6.2796598"
       sodipodi:open="true"
       sodipodi:arc-type="arc"
       d="m 2611.9667,4381.5 a 8.4666662,8.4666662 0 0 1 -8.4592,8.4667 8.4666662,8.4666662 0 0 1 -8.4742,-8.4518 8.4666662,8.4666662 0 0 1 8.4443,-8.4815 8.4666662,8.4666662 0 0 1 8.489,8.4368" />
    <path
       style="fill:#000000;stroke:#000000;stroke-width:0"
       id="path592-0-0-6-0-2"
       sodipodi:type="arc"
       sodipodi:cx="2349.5"
       sodipodi:cy="4478.8667"
       sodipodi:rx="8.4666662"
       sodipodi:ry="8.4666662"
       sodipodi:start="0"
       sodipodi:end="6.2796598"
       sodipodi:open="true"
       sodipodi:arc-type="arc"
       d="m 2357.9667,4478.8667 a 8.4666662,8.4666662 0 0 1 -8.4592,8.4667 8.4666662,8.4666662 0 0 1 -8.4742,-8.4518 8.4666662,8.4666662 0 0 1 8.4443,-8.4815 8.4666662,8.4666662 0 0 1 8.489,8.4367" />
    <path
       style="fill:#000000;stroke:#000000;stroke-width:0"
       id="path592-0-0-6-0-2-8"
       sodipodi:type="arc"
       sodipodi:cx="2552.7"
       sodipodi:cy="4580.4668"
       sodipodi:rx="8.4666662"
       sodipodi:ry="8.4666662"
       sodipodi:start="0"
       sodipodi:end="6.2796598"
       sodipodi:open="true"
       sodipodi:arc-type="arc"
       d="m 2561.1666,4580.4668 a 8.4666662,8.4666662 0 0 1 -8.4592,8.4667 8.4666662,8.4666662 0 0 1 -8.4741,-8.4518 8.4666662,8.4666662 0 0 1 8.4443,-8.4815 8.4666662,8.4666662 0 0 1 8.489,8.4367" />
    <path
       style="fill:#000000;stroke:#000000;stroke-width:0"
       id="path592-0-0-6-0-2-8-5"
       sodipodi:type="arc"
       sodipodi:cx="2328.3333"
       sodipodi:cy="4732.8667"
       sodipodi:rx="8.4666662"
       sodipodi:ry="8.4666662"
       sodipodi:start="0"
       sodipodi:end="6.2796598"
       sodipodi:open="true"
       sodipodi:arc-type="arc"
       d="m 2336.7999,4732.8667 a 8.4666662,8.4666662 0 0 1 -8.4592,8.4667 8.4666662,8.4666662 0 0 1 -8.4741,-8.4518 8.4666662,8.4666662 0 0 1 8.4443,-8.4815 8.4666662,8.4666662 0 0 1 8.489,8.4367" />
    <rect
       style="fill:#000000;stroke:#000000;stroke-width:0"
       id="rect362"
       width="29.633333"
       height="135.46658"
       x="2637.3667"
       y="5126.5669" />
    <path
       style="fill:#000000;stroke:#000000;stroke-width:0"
       d="m 2738.9666,5383.2124 32.2792,-4.4979 -15.3458,-87.0479 -25.4,4.2333 z"
       id="path656" />
    <path
       style="fill:#000000;stroke:#000000;stroke-width:0"
       d="m 681.56666,2214.0333 25.4,21.1667 h 8.46666 l 21.16667,21.1666 29.63333,16.9334 21.16667,4.2333 25.4,29.6333 46.56667,8.4667 25.4,21.1667 12.7,21.1666 -4.23334,12.7 -12.7,4.2334 -25.4,-8.4667 -21.16666,8.4667 -59.26667,-12.7 -33.86667,-25.4 -42.33333,-8.4667 -55.03333,-33.8667 -16.93333,-46.5666 8.46666,-33.8667 h 21.16667 l 8.46666,-4.2333 z"
       id="path521" />
    <path
       style="fill:#000000;stroke:#000000;stroke-width:0"
       d="m 1176.8667,2633.1333 50.8,8.4667 v 25.4 l 76.2,33.8666 16.9333,16.9334 33.8666,33.8666 42.3334,8.4667 33.8666,33.8667 16.9334,8.4666 50.8,16.9334 25.4,25.4 8.4666,25.4 50.8,16.9333 50.8,33.8667 16.9334,16.9333 93.1333,16.9333 25.4,16.9334 59.2667,16.9333 33.8666,16.9333 H 1930.4 l 42.3333,8.4667 16.9333,8.4667 50.8,16.9333 h 33.8667 l 16.9333,33.8667 v 33.8666 l -50.8,8.4667 -177.8,-25.4 -203.2,-16.9333 -203.2,-84.6667 L 1320.8,2921 l -110.0667,-118.5334 -59.2666,-101.6 8.4666,-67.7333 z"
       id="path570" />
  </g>
</svg>
