<?xml version="1.0" encoding="UTF-8" standalone="no"?>
<!-- Created with Inkscape (http://www.inkscape.org/) -->

<svg
   width="1080"
   height="1920"
   viewBox="0 0 1080 1920"
   version="1.1"
   id="svg5"
   inkscape:version="1.2.2 (b0a84865, 2022-12-01)"
   sodipodi:docname="map_mini1.svg"
   xmlns:inkscape="http://www.inkscape.org/namespaces/inkscape"
   xmlns:sodipodi="http://sodipodi.sourceforge.net/DTD/sodipodi-0.dtd"
   xmlns="http://www.w3.org/2000/svg"
   xmlns:svg="http://www.w3.org/2000/svg">
  <sodipodi:namedview
     id="namedview7"
     pagecolor="#ffffff"
     bordercolor="#000000"
     borderopacity="0.25"
     inkscape:showpageshadow="2"
     inkscape:pageopacity="0.0"
     inkscape:pagecheckerboard="0"
     inkscape:deskcolor="#d1d1d1"
     inkscape:document-units="px"
     showgrid="true"
     inkscape:zoom="0.40703096"
     inkscape:cx="717.39015"
     inkscape:cy="1002.3808"
     inkscape:window-width="1680"
     inkscape:window-height="1022"
     inkscape:window-x="0"
     inkscape:window-y="0"
     inkscape:window-maximized="0"
     inkscape:current-layer="layer1">
    <inkscape:grid
       type="xygrid"
       id="grid9"
       empspacing="40" />
  </sodipodi:namedview>
  <defs
     id="defs2">
    <inkscape:path-effect
       effect="bspline"
       id="path-effect173"
       is_visible="true"
       lpeversion="1"
       weight="33.333333"
       steps="2"
       helper_size="0"
       apply_no_weight="true"
       apply_with_weight="true"
       only_selected="false" />
  </defs>
  <g
     inkscape:label="Layer 1"
     inkscape:groupmode="layer"
     id="layer1">
    <path
       style="fill:#000000"
       d="M 540,680 460,800 H 620 L 540,680"
       id="path432" />
    <path
       style="fill:#000000"
       d="M 420,840 340,960 H 500 L 420,840"
       id="path432-2" />
    <path
       style="fill:#000000"
       d="m 540,1000 -80,120 h 160 l -80,-120"
       id="path432-2-4" />
    <path
       style="fill:#000000"
       d="M 660,840 580,960 H 740 L 660,840"
       id="path432-2-8" />
    <path
       style="fill:#000000"
       d="m 780,1000 -80,120 h 160 l -80,-120"
       id="path432-6-94" />
    <path
       style="fill:#000000"
       d="m 420,1160 -80,120 h 160 l -80,-120"
       id="path432-2-0" />
    <path
       style="fill:#000000"
       d="m 660,1160 -80,120 h 160 l -80,-120"
       id="path432-2-8-0" />
    <path
       style="fill:#000000"
       d="m 660,1160 -80,120 h 160 l -80,-120"
       id="path432-2-8-0-3" />
    <path
       style="fill:#000000"
       d="m 900,1160 -80,120 h 160 l -80,-120"
       id="path432-2-8-0-3-5" />
    <path
       style="fill:#000000"
       d="M 300,680 220,800 H 380 L 300,680"
       id="path432-6-9" />
    <path
       style="fill:#000000"
       d="M 780,680 700,800 H 860 L 780,680"
       id="path432-2-8-0-3-6" />
    <path
       style="fill:#000000"
       d="M 180,840 100,960 H 260 L 180,840"
       id="path432-2-8-0-3-3" />
    <path
       style="fill:#000000"
       d="M 900,840 820,960 H 980 L 900,840"
       id="path432-2-8-0-3-63" />
    <path
       id="path432-2-8-0-3-8"
       style="fill:#000000"
       d="M 1020 1000 L 940 1120 L 1080 1120 L 1080 1090 L 1020 1000 z " />
    <path
       style="fill:#000000"
       d="m 300,1000 -80,120 h 160 l -80,-120"
       id="path432-6-9-5" />
    <path
       style="fill:#000000"
       d="m 180,1160 -80,120 h 160 l -80,-120"
       id="path432-2-8-0-6" />
    <path
       style="fill:#000000"
       d="M 420,520 340,640 H 500 L 420,520"
       id="path432-2-0-6" />
    <path
       style="fill:#000000"
       d="M 660,520 580,640 H 740 L 660,520"
       id="path432-2-8-0-32" />
    <path
       style="fill:#000000"
       d="M 660,520 580,640 H 740 L 660,520"
       id="path432-2-8-0-3-68" />
    <path
       style="fill:#000000"
       d="M 900,520 820,640 H 980 L 900,520"
       id="path432-2-8-0-3-5-9" />
    <path
       style="fill:#000000"
       d="M 180,520 100,640 H 260 L 180,520"
       id="path432-2-8-0-6-1" />
    <path
       style="fill:#000000"
       d="m 420,1480 -80,120 h 160 l -80,-120"
       id="path432-2-0-7" />
    <path
       style="fill:#000000"
       d="m 660,1480 -80,120 h 160 l -80,-120"
       id="path432-2-8-0-5" />
    <path
       style="fill:#000000"
       d="m 660,1480 -80,120 h 160 l -80,-120"
       id="path432-2-8-0-3-65" />
    <path
       style="fill:#000000"
       d="m 900,1480 -80,120 h 160 l -80,-120"
       id="path432-2-8-0-3-5-3" />
    <path
       style="fill:#000000"
       d="m 180,1480 -80,120 h 160 l -80,-120"
       id="path432-2-8-0-6-0" />
    <path
       id="path432-2-04"
       style="fill:#000000"
       d="M 1020 680 L 940 800 L 1080 800 L 1080 770 L 1020 680 z " />
    <path
       style="fill:#000000"
       d="M 540,360 460,480 H 620 L 540,360"
       id="path432-3" />
    <path
       id="path432-6-3"
       style="fill:#000000"
       d="M 60,360 0,450 v 30 h 140 z" />
    <path
       id="path432-6-3-7"
       style="fill:#000000"
       d="M 60,680 0,770 v 30 h 140 z" />
    <path
       id="path432-6-3-7-3"
       style="fill:#000000"
       d="m 60,1000 -60,90 v 30 h 140 z" />
    <path
       id="path432-6-3-7-3-3"
       style="fill:#000000"
       d="m 60,1320 -60,90 v 30 h 140 z" />
    <path
       style="fill:#000000"
       d="M 300,360 220,480 H 380 L 300,360"
       id="path432-6-9-7" />
    <path
       style="fill:#000000"
       d="M 780,360 700,480 H 860 L 780,360"
       id="path432-2-8-0-3-6-7" />
    <path
       id="path432-2-04-3"
       style="fill:#000000"
       d="M 1020 360 L 940 480 L 1080 480 L 1080 450 L 1020 360 z " />
    <path
       style="fill:#000000"
       d="m 540,1320 -80,120 h 160 l -80,-120"
       id="path432-2-4-7" />
    <path
       style="fill:#000000"
       d="m 780,1320 -80,120 h 160 l -80,-120"
       id="path432-6-94-5" />
    <path
       id="path432-2-8-0-3-8-2"
       style="fill:#000000"
       d="M 1020 1320 L 940 1440 L 1080 1440 L 1080 1410 L 1020 1320 z " />
    <path
       style="fill:#000000"
       d="m 300,1320 -80,120 h 160 l -80,-120"
       id="path432-6-9-5-9" />
    <rect
       style="fill:#000000"
       id="rect888"
       width="40"
       height="240"
       x="400"
       y="1640" />
    <rect
       style="fill:#000000"
       id="rect888-2"
       width="40"
       height="240"
       x="640"
       y="1640" />
    <path
       id="path1190"
       style="fill:#000000"
       d="M 40 330 L 40 360 L 40 390 L 60 360 L 40 330 z " />
    <path
       id="path1190-7"
       style="fill:#000000"
       d="m 40,650 v 30 30 l 20,-30 z" />
    <path
       id="path1190-7-1"
       style="fill:#000000"
       d="m 40,970 v 30 30 l 20,-30 z" />
    <path
       id="path1190-7-1-3"
       style="fill:#000000"
       d="m 40,1290 v 30 30 l 20,-30 z" />
    <path
       id="path1190-7-1-4"
       style="fill:#000000"
       d="m 1040,330 v 30 30 l -20,-30 z" />
    <path
       id="path1190-7-1-4-8"
       style="fill:#000000"
       d="m 1040,650 v 30 30 l -20,-30 z" />
    <path
       id="path1190-7-1-4-6"
       style="fill:#000000"
       d="m 1040,970 v 30 30 l -20,-30 z" />
    <path
       id="path1190-7-1-4-1"
       style="fill:#000000"
       d="m 1040,1290 v 30 30 l -20,-30 z" />
    <rect
       style="fill:#000000"
       id="rect268"
       width="40"
       height="1920"
       x="0"
       y="0" />
    <rect
       style="fill:#000000"
       id="rect270"
       width="1080"
       height="40"
       x="0"
       y="0" />
    <rect
       style="fill:#000000"
       id="rect272"
       width="40"
       height="1920"
       x="1040"
       y="0" />
    <rect
       style="fill:#000000"
       id="rect274"
       width="1080"
       height="40"
       x="0"
       y="1880" />
  </g>
</svg>
